<svg xmlns="http://www.w3.org/2000/svg" xmlns:xlink="http://www.w3.org/1999/xlink" viewBox="0 0 430 430" width="430" height="430" preserveAspectRatio="xMidYMid meet" style="width: 100%; height: 100%; transform: translate3d(0px, 0px, 0px); content-visibility: visible;"><defs><clipPath id="__lottie_element_17336"><rect width="430" height="430" x="0" y="0"/></clipPath><clipPath id="__lottie_element_17338"><path d="M0,0 L430,0 L430,430 L0,430z"/></clipPath></defs><g clip-path="url(#__lottie_element_17336)"><g clip-path="url(#__lottie_element_17338)" transform="matrix(1,0,0,1,0,0)" opacity="1" style="display: block;"><g transform="matrix(1,0,0,1,224,238.99899291992188)" opacity="1" style="display: block;"><g opacity="1" transform="matrix(1,0,0,1,0,-2)"><path stroke-linecap="round" stroke-linejoin="round" fill-opacity="0" class="primary" stroke="rgb(255,255,255)" stroke-opacity="1" stroke-width="12.6" d=" M98.3949966430664,-30.29199981689453 C98.3949966430664,-30.29199981689453 97.99400329589844,56.005001068115234 97.99400329589844,56.005001068115234 C97.99400329589844,56.005001068115234 70.50700378417969,106.29199981689453 -9.055000305175781,106.03399658203125 C-89.72000122070312,105.77200317382812 -117.9010009765625,56.005001068115234 -117.9010009765625,56.005001068115234 C-117.9010009765625,56.005001068115234 -117.5,-30.29199981689453 -117.5,-30.29199981689453"/></g></g><g transform="matrix(1,0,0,1,214.5,238.99899291992188)" opacity="1" style="display: block;"><g opacity="1" transform="matrix(1,0,0,1,0,-2)"><path stroke-linecap="round" stroke-linejoin="round" fill-opacity="0" class="primary" stroke="rgb(255,255,255)" stroke-opacity="1" stroke-width="12.6" d=" M180.44000244140625,-92.96900177001953 C180.44000244140625,-92.96900177001953 0.020999999716877937,-156.781005859375 0.020999999716877937,-156.781005859375 C0.020999999716877937,-156.781005859375 -179.468994140625,-93 -179.468994140625,-93 C-179.468994140625,-93 0.020999999716877937,-29.2189998626709 0.020999999716877937,-29.2189998626709 C0.020999999716877937,-29.2189998626709 180.44000244140625,-92.96900177001953 180.44000244140625,-92.96900177001953z M-177.2169952392578,-93.02999877929688 C-178.593994140625,-93.03099822998047 -179.31500244140625,-93.03099822998047 -179.31500244140625,-93.03099822998047 C-179.31500244140625,-93.03099822998047 -179.468994140625,-64 -179.468994140625,-64 C-179.468994140625,-64 0.020999999716877937,-0.21899999678134918 0.020999999716877937,-0.21899999678134918 C0.020999999716877937,-0.21899999678134918 180.47000122070312,-64.25 180.47000122070312,-64.25 C180.47000122070312,-64.25 180.47000122070312,-64.25 180.47000122070312,-64.25 C180.47000122070312,-64.25 180.5,-92.93699645996094 180.5,-92.93699645996094 C180.5,-92.93699645996094 178.42100524902344,-92.93800354003906 174.5780029296875,-92.93900299072266"/></g></g><g transform="matrix(1,0,0,1,215,214.99899291992188)" opacity="1" style="display: block;"><g opacity="1" transform="matrix(1,0,0,1,0,0)"><path stroke-linecap="round" stroke-linejoin="round" fill-opacity="0" class="secondary" stroke="rgb(79,16,145)" stroke-opacity="1" stroke-width="12.6" d=" M0.5,-72 C0.5,-72 77.5,-44 77.5,-44 C77.5,-44 77.5,61 77.5,61 M77.5,63.5 C77.5,63.5 77.5,87.34400177001953 77.5,87.34400177001953"/><path stroke-linecap="round" stroke-linejoin="round" fill-opacity="0" class="secondary" stroke="rgb(79,16,145)" stroke-opacity="1" stroke-width="21" d=" M77.5,63.5 C77.5,63.5 77.5,87.34400177001953 77.5,87.34400177001953"/></g></g></g></g></svg>